<svg xmlns="http://www.w3.org/2000/svg" xmlns:svg="http://www.w3.org/2000/svg" id="svg2" width="120" height="120" version="1.0"><metadata id="metadata7"/><g id="layer1" transform="translate(-399.99999,-112.36216)"><path style="fill:#7a3eca;fill-opacity:.92903227;fill-rule:nonzero;stroke:#000;stroke-width:1.19603324;stroke-linecap:butt;stroke-linejoin:round;stroke-miterlimit:4;stroke-dasharray:none;stroke-opacity:1" id="path2383" d="M 60 0.59375 C 27.210106 0.59375 0.59375001 27.210102 0.59375 60 C 0.59375 92.789898 27.210106 119.40625 60 119.40625 C 92.789894 119.40625 119.40625 92.789898 119.40625 60 C 119.40625 27.210102 92.789895 0.59375003 60 0.59375 z M 60 11.5 C 86.778415 11.5 108.5 33.221587 108.5 60 C 108.5 86.778415 86.778413 108.5 60 108.5 C 33.221588 108.5 11.5 86.778413 11.5 60 C 11.5 33.221588 33.221587 11.5 60 11.5 z" transform="translate(399.99999,112.36216)"/><path style="opacity:1;fill:#b9c3e3;fill-opacity:1;fill-rule:nonzero;stroke:#c73b50;stroke-width:2.84160519;stroke-linecap:butt;stroke-linejoin:round;stroke-miterlimit:4;stroke-dasharray:none;stroke-opacity:1" id="path3684" d="M 460,124.77989 L 460,219.94137"/><path style="opacity:1;fill:red;fill-opacity:1;fill-rule:nonzero;stroke:#c73b50;stroke-width:2.84386897;stroke-linecap:butt;stroke-linejoin:round;stroke-miterlimit:4;stroke-dasharray:none;stroke-opacity:1" id="path3686" d="M 412.42186,171.76205 L 507.72624,171.76205"/></g></svg>