<svg xmlns="http://www.w3.org/2000/svg" xmlns:x="adobe:ns:meta/" xmlns:xap="http://ns.adobe.com/xap/1.0/" xmlns:xapGImg="http://ns.adobe.com/xap/1.0/g/img/" xmlns:xapMM="http://ns.adobe.com/xap/1.0/mm/" xmlns:xlink="http://www.w3.org/1999/xlink" xmlns:xml="http://www.w3.org/XML/1998/namespace" style="overflow:visible;enable-background:new 0 0 256 256" id="svg732" width="64" height="64" viewBox="0 0 256 256" xml:space="preserve"><metadata id="metadata733"><xpacket>begin=&apos; &apos; id=&apos;W5M0MpCehiHzreSzNTczkc9d&apos;</xpacket><x:xmpmeta x:xmptk="XMP toolkit 3.0-29, framework 1.6"/><xpacket>end=&apos;w&apos;</xpacket></metadata><g id="Layer_1"><rect id="_x3C_Slice_x3E_" width="256" height="256" style="fill:none"/><linearGradient id="XMLID_7_" x1="73.987" x2="197.893" y1="101.121" y2="225.026" gradientUnits="userSpaceOnUse"><stop style="stop-color:#006a00" id="stop737" offset="0"/><stop style="stop-color:#033" id="stop738" offset="1"/></linearGradient><path style="fill:url(#XMLID_7_)" id="path742" d="M105.661,127.22C105.662,127.22,105.662,127.219,105.661,127.22l-9.978,6.887 c-6.869,4.742-13.254,9.359-18.977,13.729c-29.04,22.168-36.41,34.184-38.219,39.371l-0.729,2.096 c-0.232,0.666-0.232,1.402,0,2.07l0.729,2.094c1.807,5.188,9.173,17.203,38.217,39.377c5.696,4.35,12.082,8.969,18.979,13.73 l9.978,6.889c0.967,0.668,2.213,0.744,3.254,0.197c1.04-0.545,1.686-1.615,1.686-2.789c0,0,0-30.197,0-32.166 c2.004,0,44.197,0,44.197,0c44.568,0,80.827-36.262,80.827-80.83v-6.361c0-1.738-1.413-3.15-3.15-3.15h-50.424 c-1.737,0-3.15,1.412-3.15,3.15v6.361c0,13.291-10.812,24.104-24.101,24.104c0,0-37.438-0.002-44.199-0.004 c0-1.969,0-32.164,0-32.164c0-1.174-0.646-2.245-1.687-2.789C107.875,126.475,106.628,126.551,105.661,127.22z"/><linearGradient id="XMLID_8_" x1="136.792" x2="136.792" y1="167.531" y2="222.133" gradientUnits="userSpaceOnUse"><stop style="stop-color:#fff" id="stop744" offset="0"/><stop style="stop-color:#dadada" id="stop745" offset="1"/></linearGradient><path style="fill:url(#XMLID_8_)" id="path749" d="M188.414,137.875c0,18.537-15.079,33.617-33.613,33.617c-0.001,0-0.002,0-0.002,0 c0-0.002,0-0.002,0-0.004c-5.938,0-53.71,0-53.71,0s0-21.33,0-29.553c-6.684,4.613-12.938,9.131-18.61,13.463 c-29.464,22.492-34.301,32.914-35.007,34.939c0.705,2.025,5.534,12.443,35.007,34.945c5.676,4.334,11.93,8.85,18.61,13.463 c0-8.225,0-29.555,0-29.555s47.772,0,53.71,0l0,0c0,0,0.001,0,0.002,0c39.384,0,71.312-31.93,71.312-71.316H188.414z"/><linearGradient id="XMLID_9_" x1="137.066" x2="137.066" y1="129.819" y2="235.161" gradientUnits="userSpaceOnUse"><stop style="stop-color:#9f6" id="stop751" offset="0"/><stop style="stop-color:#090" id="stop752" offset="1"/></linearGradient><path style="fill:url(#XMLID_9_)" id="path756" d="M195.98,146.318c-3.945,19.406-21.023,33.615-41.18,33.615l-62.154-0.004 c0,0,0-14.01,0-21.598c-1.759,1.297-3.462,2.568-5.045,3.777c-19.559,14.932-27.438,24.043-30.432,28.23 c2.993,4.188,10.873,13.299,30.432,28.232c1.581,1.207,3.283,2.477,5.045,3.777c0-7.588,0-21.6,0-21.6h62.152 c31.547,0,57.999-23.578,62.165-54.432C211.312,146.318,200.486,146.318,195.98,146.318z"/><linearGradient id="XMLID_10_" x1="68.017" x2="208.563" y1="40.881" y2="181.427" gradientUnits="userSpaceOnUse"><stop style="stop-color:#006a00" id="stop758" offset="0"/><stop style="stop-color:#033" id="stop759" offset="1"/></linearGradient><path style="fill:url(#XMLID_10_)" id="path763" d="M147.085,2.339C147.085,2.34,147.085,2.34,147.085,2.339 c-1.04,0.546-1.687,1.615-1.687,2.79c0,0,0,30.194,0,32.164c-2.003,0-44.197,0-44.197,0c-44.568,0-80.827,36.259-80.827,80.827 v6.363c0,1.737,1.413,3.15,3.15,3.15l50.425,0.001c0.842,0,1.633-0.328,2.228-0.923c0.595-0.594,0.922-1.385,0.922-2.227v-6.363 c0-6.424,2.511-12.473,7.071-17.033c4.56-4.559,10.608-7.069,17.03-7.069c0,0,37.439,0.002,44.198,0.002 c0,1.969,0,32.165,0,32.165c0,1.174,0.646,2.243,1.687,2.789s2.287,0.471,3.253-0.196l9.979-6.888 c6.857-4.733,13.244-9.353,18.979-13.731c29.043-22.172,36.412-34.186,38.22-39.373l0.729-2.095c0.233-0.668,0.233-1.404,0-2.072 l-0.729-2.094c-1.81-5.189-9.183-17.204-38.219-39.374c-5.711-4.36-12.097-8.979-18.978-13.729l-9.979-6.887 C149.372,1.869,148.125,1.794,147.085,2.339z"/><linearGradient id="XMLID_11_" x1="119.209" x2="119.209" y1="45.606" y2="121.903" gradientUnits="userSpaceOnUse"><stop style="stop-color:#fff" id="stop765" offset="0"/><stop style="stop-color:#dadada" id="stop766" offset="1"/></linearGradient><path style="fill:url(#XMLID_11_)" id="path770" d="M67.585,118.121c0-18.536,15.081-33.616,33.615-33.615c0-0.001,0.001-0.001,0.001-0.001 c0,0.001,0,0.003,0,0.004c5.939,0,53.71,0,53.71,0s0,21.331,0,29.554c6.685-4.615,12.938-9.134,18.611-13.463 c29.463-22.495,34.301-32.913,35.008-34.941c-0.707-2.026-5.536-12.442-35.008-34.945c-5.676-4.332-11.931-8.851-18.61-13.461 c0,8.224,0,29.553,0,29.553s-47.772,0-53.711,0l0,0c0,0,0,0-0.001,0c-39.384,0-71.313,31.929-71.313,71.314L67.585,118.121z"/><linearGradient id="XMLID_12_" x1="118.933" x2="118.933" y1="41.183" y2="114.005" gradientUnits="userSpaceOnUse"><stop style="stop-color:#9f6" id="stop772" offset="0"/><stop style="stop-color:#090" id="stop773" offset="1"/></linearGradient><path style="fill:url(#XMLID_12_)" id="path777" d="M163.354,46.805v8.442h-62.153c-31.547,0-58,23.577-62.166,54.43 c5.649,0,16.47,0,20.98,0.001c1.628-8.068,5.541-15.37,11.458-21.287c7.95-7.95,18.506-12.328,29.724-12.328l62.155,0.003 c0,0,0,14.011,0,21.598c1.754-1.294,3.456-2.563,5.047-3.777c19.557-14.93,27.436-24.042,30.431-28.229 c-2.995-4.188-10.878-13.305-30.433-28.236c-1.584-1.209-3.285-2.478-5.044-3.775C163.354,39.878,163.354,46.805,163.354,46.805z"/></g></svg>